<svg width="62" height="64" viewBox="0 0 62 64" fill="none" xmlns="http://www.w3.org/2000/svg">
<path d="M50.831 45.9814L51.3584 41.4549L47.1035 44.7755L45.8551 46.1562L36.8353 56.1529L34.1452 57.0617L30.576 59.7881L27.0067 57.0617L24.299 56.1529L15.2792 46.1562L14.0308 44.7755L9.79345 41.4549L10.3209 45.9814L0 43.8667L6.38245 35.4954L4.71212 26.3026L7.4374 9.787L10.3209 0L16.2814 7.68979L16.9671 8.38886L25.9518 17.7564L27.8507 19.5216H33.3012L35.2002 17.7564L44.1848 8.38886L44.8705 7.68979L50.831 0L53.7145 9.787L56.4398 26.3026L54.7695 35.4954L61.1343 43.8667L50.831 45.9814Z" fill="#FF5E24"/>
<path d="M19.7276 60.6096L17.4067 59.1066L16.4045 58.4425L7.89454 52.9199L0 43.8669L10.3209 45.9816L9.79345 41.4551L14.0308 44.7757L15.2792 46.1563L24.299 56.1531L27.0067 57.0619L30.576 59.7882L34.1452 57.0619L36.8353 56.1531L45.8551 46.1563L47.1035 44.7757L51.3584 41.4551L50.831 45.9816L61.1343 43.8669L53.2574 52.9199L44.7474 58.4425L43.7452 59.1066L41.4243 60.6096" fill="#CAC9C9"/>
<path d="M34.1443 57.0618L30.5751 59.7882L27.0059 57.0618L30.5751 55.2617L34.1443 57.0618Z" fill="#702003"/>
<path d="M37.6969 61.658L33.6881 63.6329L30.576 63.9999L27.4639 63.6329L23.4375 61.658L24.299 56.1528L27.0067 57.0616L30.576 59.788L34.1452 57.0616L36.8353 56.1528L37.6969 61.658Z" fill="#EBE9E9"/>
<path d="M24.299 56.1531L23.4375 61.6583L19.7276 60.6096L16.4045 58.4425L7.89454 52.9199L0 43.8669L10.3209 45.9816L9.79345 41.4551L14.0308 44.7757L15.2968 46.1563L24.299 56.1531Z" fill="#EBE9E9"/>
<path d="M24.2991 56.153L23.4376 61.6582L19.7277 60.6096L17.4068 59.1066L15.2969 46.1562L24.2991 56.153Z" fill="#CAC9C9"/>
<path d="M25.9516 45.5969L16.2461 41.0879L22.0835 38.9033L25.9516 45.5969Z" stroke="#231F20" stroke-miterlimit="10"/>
<path d="M26.461 35.1456L22.083 38.9031L18.2148 34.6038L21.9951 30.5317L26.461 35.1456Z" stroke="#231F20" stroke-miterlimit="10"/>
<path d="M61.1343 43.8667L54.7695 35.4953L51.1299 33.468L47.5606 31.6504V33.468L38.2771 22.5275L33.3012 19.5215H27.8507L22.8572 22.5275L13.5737 33.468V31.6504L10.0044 33.468L6.36486 35.4953L0 43.8667L10.3209 45.9813L9.79345 41.4549L14.0484 44.7754L15.2968 46.1561L24.3166 56.1354V54.1954L28.5364 47.3445H32.6331L36.8529 54.1954V56.1354L45.8727 46.1561L47.1211 44.7754L51.376 41.4549L50.8486 45.9813L61.1343 43.8667Z" fill="#FF5E24"/>
<path d="M16.2461 41.0879L22.0835 38.9033L25.9516 45.5969L16.2461 41.0879Z" fill="#702003"/>
<path d="M39.4556 27.8929L39.1391 30.5319L34.6907 35.1457L30.5764 39.4275L26.4621 35.1457L21.9962 30.5319L21.6973 27.8929L27.4643 24.5723H33.6885L39.4556 27.8929Z" fill="#FF855C"/>
<path d="M26.461 35.1456L22.083 38.9031L18.2148 34.6038L21.9951 30.5317L26.461 35.1456Z" fill="#E34413"/>
<path d="M36.8352 54.1956V56.153L34.145 57.0618L30.5758 55.2617L27.0065 57.0618L24.2988 56.153V54.1956L28.5362 47.3447H32.6154L36.8352 54.1956Z" fill="#E34413"/>
<path d="M27.8514 19.5216L22.858 22.5276L13.5745 33.4681V31.6505L10.0228 33.4681L6.38323 35.4954L4.71289 26.3026L7.43818 9.787L10.3217 0L16.2822 7.68979L16.9679 8.38886L25.9525 17.7389L27.8514 19.5216Z" fill="#942A03"/>
<path d="M13.5735 22.0732V31.6505L10.0219 33.4681L8.42188 29.3261V13.3348L9.17792 9.94434L11.6219 16.6729L12.6593 19.5216L13.5735 22.0732Z" fill="#CAC9C9"/>
<path d="M13.5735 22.0731V31.6504L10.0219 33.468L8.42188 29.326L12.6593 19.5215L13.5735 22.0731Z" fill="#9C9C9C"/>
<path d="M11.6217 16.6729L16.2811 7.68979L10.3206 0L9.17773 9.94429L11.6217 16.6729Z" fill="#702003"/>
<path d="M13.5744 22.0731L12.6602 19.5215L22.858 22.5275L13.5744 33.468V22.0731Z" fill="#702003"/>
<path d="M10.0228 33.4681L6.38323 35.4954L4.71289 26.3026L8.42279 20.7275V29.3261L10.0228 33.4681Z" fill="#702003"/>
<path d="M61.135 43.8669L53.258 52.9199L44.7481 58.4425L41.425 60.6096L37.6975 61.6583L36.8359 56.1531L45.8558 46.1563L47.1041 44.7757L51.3591 41.4551L50.8316 45.9816L61.135 43.8669Z" fill="#EBE9E9"/>
<path d="M45.8558 46.1562L43.7459 59.1066L41.425 60.6096L37.6975 61.6582L36.8359 56.153L45.8558 46.1562Z" fill="#CAC9C9"/>
<path d="M42.9356 34.6038L39.0675 38.9031L34.6895 35.1456L39.1378 30.5317L42.9356 34.6038Z" fill="#E34413"/>
<path d="M35.1992 45.5969L39.0674 38.9033L44.9047 41.0879L35.1992 45.5969Z" fill="#702003"/>
<path d="M56.4393 26.3026L54.769 35.4954L51.1294 33.4681L47.5602 31.6505V33.4681L38.2942 22.5276L33.3008 19.5216L35.1997 17.7389L44.1843 8.38886L44.8701 7.68979L50.8305 0L53.714 9.787L56.4393 26.3026Z" fill="#942A03"/>
<path d="M52.7298 13.3348V29.3261L51.1298 33.4681L47.5605 31.6505V22.0732L48.4924 19.5216L49.5298 16.6729L51.9737 9.94434L52.7298 13.3348Z" fill="#CAC9C9"/>
<path d="M52.7298 29.326L51.1298 33.468L47.5605 31.6504V22.0731L48.4924 19.5215L52.7298 29.326Z" fill="#9C9C9C"/>
<path d="M49.5304 16.6729L44.8711 7.68979L50.8315 0L51.9568 9.94429L49.5304 16.6729Z" fill="#702003"/>
<path d="M48.4928 19.5215L47.5609 22.0731V33.468L38.2949 22.5275L48.4928 19.5215Z" fill="#702003"/>
<path d="M56.4408 26.3026L54.7704 35.4954L51.1309 33.4681L52.7309 29.3261V20.7275L56.4408 26.3026Z" fill="#702003"/>
<path d="M41.5289 26.3549L39.4366 27.8929L33.6871 24.5723H27.4629L21.6958 27.8929L19.6211 26.3549L22.8563 22.5275L27.8497 19.5215H33.3003L38.2937 22.5275L41.5289 26.3549Z" fill="#E34413"/>
</svg>
