<svg width="706" height="509" viewBox="0 0 706 509" fill="none" xmlns="http://www.w3.org/2000/svg">
<path d="M0 212.211L41.7073 175.509L44.2274 139.396L85.6827 107.517L118.822 83.0493L137.47 112.105L168.971 135.631L186.738 133.867L238.525 160.217L183.084 225.739L105.969 232.209L39.0612 234.326L0 212.211Z" fill="#FF5E24"/>
<path d="M15.8765 221.268L20.6646 209.152L14.7425 199.271L0 212.211L15.8765 221.268Z" fill="#702003"/>
<path d="M20.6651 209.152L57.0802 210.093L96.3935 191.742L133.187 180.685L178.422 150.335L188.376 173.392L238.526 160.217L183.084 225.738L105.97 232.208L39.0617 234.326L15.877 221.268L20.6651 209.152Z" fill="#EBE9E9"/>
<path d="M168.972 135.631L85.6836 107.517L118.823 83.0493L137.471 112.105L168.972 135.631Z" fill="#E34413"/>
<path d="M41.707 175.509L105.339 114.222L85.6824 107.517L44.2271 139.396L41.707 175.509Z" fill="#FF855C"/>
<path d="M73.209 179.744L89.8415 154.335L121.342 161.393L73.209 179.744Z" fill="#702003"/>
<path d="M89.8399 154.335L62.623 155.276L95.1321 123.986L99.4162 143.631L89.8399 154.335Z" fill="#E34413"/>
<path d="M188.375 173.392L173.885 226.444L183.083 225.739L238.525 160.217L188.375 173.392Z" fill="#D1CFCF"/>
<path d="M105.969 232.208L133.186 180.685L96.3926 191.743L57.0793 210.093L55.9453 233.738L105.969 232.208Z" fill="#D1CFCF"/>
<path d="M39.0605 234.326L57.0791 210.093L55.9451 233.738L39.0605 234.326Z" fill="#9C9C9C"/>
<path d="M118.822 83.0492L203.119 0L214.207 46.2299V115.163L202.741 141.866L186.738 133.867L168.972 135.631L137.471 112.105L118.822 83.0492Z" fill="#942A03"/>
<path d="M118.823 83.0492L111.514 29.4083L99.04 1.17627L53.4266 112.693L49.6465 135.278L85.6836 107.517L118.823 83.0492Z" fill="#942A03"/>
<path d="M168.971 135.631L182.075 83.2844L201.48 40.4658L201.732 97.4004L186.737 133.867L168.971 135.631Z" fill="#D1CFCF"/>
<path d="M196.44 110.34L182.075 83.2847L168.971 135.632L186.737 133.867L196.44 110.34Z" fill="#9C9C9C"/>
<path d="M105.969 232.208L125.625 284.791L187.367 349.724L244.195 350.901L252.007 337.255L301.149 301.377L341.47 296.789L379.523 298.907L415.686 321.257L465.584 318.081L506.535 321.022L572.813 374.898L605.952 380.662L601.668 348.548L519.01 295.613L482.847 292.084L449.455 243.501L355.961 200.918L315.891 202.8L219.12 232.208L183.083 225.739L105.969 232.208Z" fill="#FF5E24"/>
<path d="M173.885 226.444L149.944 257.735L125.625 284.791L105.969 232.208L173.885 226.444Z" fill="#9C9C9C"/>
<path d="M149.944 257.735L189.005 278.674L187.367 349.724L125.625 284.791L149.944 257.735Z" fill="#D1CFCF"/>
<path d="M219.121 232.209L189.007 278.674L149.945 257.735L173.886 226.445L183.084 225.739L219.121 232.209Z" fill="#E34413"/>
<path d="M252.008 337.255L279.099 284.79L290.187 277.497L354.449 268.322L379.524 298.906L341.471 296.789L301.149 301.377L252.008 337.255Z" fill="#EBE9E9"/>
<path d="M354.449 268.322L341.471 296.789L379.524 298.907L354.449 268.322Z" fill="#9C9C9C"/>
<path d="M290.187 277.498L301.149 301.377L252.008 337.255L279.099 284.791L290.187 277.498Z" fill="#D1CFCF"/>
<path d="M244.196 350.9L226.429 382.191L191.274 443.36L127.768 509H97.0234L101.182 491.355L157.379 435.126L187.368 349.724L244.196 350.9Z" fill="#FF855C"/>
<path d="M279.098 284.791L201.354 287.849L244.195 350.901L252.007 337.255L279.098 284.791Z" fill="#E34413"/>
<path d="M231.47 373.368L217.105 369.604L187.368 349.724L157.379 435.126L101.182 491.355L97.0234 509H127.768L191.274 443.36L231.47 373.368Z" fill="#942A03"/>
<path d="M129.784 289.261L127.264 297.73L54.4337 349.724L49.5195 389.014L85.9347 414.658H105.969L102.063 390.778L76.7364 366.899L161.411 332.903L162.797 323.963L129.784 289.261Z" fill="#E34413"/>
<path d="M113.782 307.376L144.022 325.021L139.99 341.49L76.7364 366.899L102.063 390.778L105.969 414.658H85.9347L49.5195 389.014L54.4337 349.724L113.782 307.376Z" fill="#942A03"/>
<path d="M76.7361 366.899L64.5137 399.601L85.9343 414.658H105.969L102.063 390.779L76.7361 366.899Z" fill="#702003"/>
<path d="M315.893 202.8L354.45 268.322L449.457 243.501L355.962 200.918L315.893 202.8Z" fill="#FF855C"/>
<path d="M482.847 292.084L465.584 318.081L506.535 321.022L572.813 374.898L605.952 380.662L601.668 348.548L519.01 295.613L482.847 292.084Z" fill="#942A03"/>
<path d="M572.814 374.898L573.696 330.55L601.669 348.548L605.953 380.662L572.814 374.898Z" fill="#702003"/>
<path d="M379.523 298.906L370.451 322.551L403.968 330.55L439.753 383.367L436.603 401.953L406.614 394.19L378.515 347.371L328.366 350.43L311.859 308.552L313.371 299.965L341.47 296.789L379.523 298.906Z" fill="#E34413"/>
<path d="M328.367 350.43L370.452 322.551L403.97 330.55L439.755 383.367L436.605 401.953L406.616 394.19L378.517 347.371L328.367 350.43Z" fill="#942A03"/>
<path d="M403.969 330.55L383.305 355.37L406.615 394.19L436.604 401.953L439.754 383.367L403.969 330.55Z" fill="#702003"/>
<path d="M362.891 204.094L471.758 153.041L569.663 142.454L705.999 86.3428L657.74 145.277L587.43 237.502L509.685 228.797L419.088 229.738L362.891 204.094Z" fill="#FF5E24"/>
<path d="M587.431 237.502L657.741 145.277L706 86.3428L569.664 142.454L587.431 237.502Z" fill="#D1CFCF"/>
<path d="M657.741 145.277L569.664 142.454L706 86.3428L657.741 145.277Z" fill="#EBE9E9"/>
<path d="M569.663 142.454L518.505 198.448L471.758 153.041L569.663 142.454Z" fill="#FF855C"/>
<path d="M471.758 153.041L518.505 198.448L546.856 232.914L509.685 228.797L419.088 229.738L362.891 204.094L471.758 153.041Z" fill="#E34413"/>
<path d="M201.733 97.4004L214.207 115.163L202.741 141.866L186.738 133.867L196.441 110.34L201.733 97.4004Z" fill="#702003"/>
<path d="M170.105 32.4668L195.432 53.7585L201.48 40.4659L201.354 56.3464L214.207 46.2299L203.118 0L170.105 32.4668Z" fill="#702003"/>
<path d="M116.553 66.2276L84.1699 37.6426L99.0384 1.17627L111.513 29.4083L116.553 66.2276Z" fill="#702003"/>
<path d="M157.379 435.126L172.122 463.24L127.768 509H97.0234L101.182 491.355L157.379 435.126Z" fill="#702003"/>
</svg>
