<svg width="29" height="24" viewBox="0 0 29 24" fill="none" xmlns="http://www.w3.org/2000/svg">
<path d="M17.0001 11V5C17.0001 3.9 16.1001 3 15.0001 3H9.00012C7.90012 3 7.00012 3.9 7.00012 5V7C7.00012 7 7.0002 7.9 7.0002 9L7 20C7 21 7.99999 21 7.99999 21H10.0001C10.5501 21 11.0001 20.55 11.0001 20V17H13.0001V20C13.0001 20.55 13.4501 21 14.0001 21H16C16 21 17 21 17 20V13C17 11.9 17.0001 11 17.0001 11ZM11.0001 15H9.00012V13H11.0001V15ZM11.0001 11H9.00012V9H11.0001V11ZM11.0001 7H9.00012V5H11.0001V7ZM15.0001 15H13.0001V13H15.0001V15ZM15.0001 11H13.0001V9H15.0001V11ZM15.0001 7H13.0001V5H15.0001V7Z" fill="white"/>
<path d="M18.1661 19.6667V18.3333H18.1661L18.1661 17H18.1661V15.7426V15.6667L18.1661 13V13V13L18.1661 12.0583L18.1661 11.7718L18.1661 11.6938L18.1661 11.6735L18.1661 11.6684L18.1661 11.6671L18.1661 11.6667V11.6667V11.6667V11.6666V10.3333C18.1661 9.87614 18.5422 9.5 18.9994 9.5H22.9994C23.4566 9.5 23.8328 9.87614 23.8328 10.3333V14.3333V14.3333V14.3333V14.3334V14.3337V14.335L23.8328 14.3402L23.8328 14.3605L23.8328 14.4385L23.8327 14.725L23.8327 15.6667V17L23.8327 19.6666L23.8327 20.3333C23.8327 20.4113 23.8149 20.4378 23.8126 20.4413L23.8125 20.4414C23.8086 20.4473 23.7998 20.4574 23.7757 20.4695C23.7498 20.4824 23.7177 20.4914 23.688 20.4964C23.6743 20.4987 23.664 20.4996 23.659 20.5C23.6589 20.5 23.6587 20.5 23.6586 20.5H22.3328C22.2422 20.5 22.1661 20.4239 22.1661 20.3333V18.3333V17.8333H21.6661H20.3328H19.8328V18.3333V20.3333C19.8328 20.4239 19.7566 20.5 19.6661 20.5H18.3401C18.34 20.5 18.3398 20.5 18.3397 20.5C18.3347 20.4996 18.3244 20.4987 18.3107 20.4964C18.281 20.4914 18.2489 20.4824 18.223 20.4695C18.1989 20.4574 18.1901 20.4473 18.1862 20.4414L18.1861 20.4413C18.1838 20.4379 18.166 20.4113 18.166 20.3333L18.166 19.6667H18.1661ZM20.3328 17.5H20.8328V17V15.6667V15.1667H20.3328H18.9994H18.4994V15.6667V17V17.5H18.9994H20.3328ZM20.3328 14.8333H20.8328V14.3333V13V12.5H20.3328H18.9994H18.4994V13V14.3333V14.8333H18.9994H20.3328ZM20.3328 12.1667H20.8328V11.6667V10.3333V9.83333H20.3328H18.9994H18.4994V10.3333V11.6667V12.1667H18.9994H20.3328ZM22.9994 17.5H23.4994V17V15.6667V15.1667H22.9994H21.6661H21.1661V15.6667V17V17.5H21.6661H22.9994ZM22.9994 14.8333H23.4994V14.3333V13V12.5H22.9994H21.6661H21.1661V13V14.3333V14.8333H21.6661H22.9994ZM22.9994 12.1667H23.4994V11.6667V10.3333V9.83333H22.9994H21.6661H21.1661V10.3333V11.6667V12.1667H21.6661H22.9994Z" fill="white" stroke="white"/>
</svg>
