<svg width="24" height="24" viewBox="0 0 24 24" fill="none" xmlns="http://www.w3.org/2000/svg">
<path d="M17.0001 11V5C17.0001 3.9 16.1001 3 15.0001 3H9.00012C7.90012 3 7.00012 3.9 7.00012 5V7C7.00012 7 7.0002 7.9 7.0002 9L7 20C7 21 7.99999 21 7.99999 21H10.0001C10.5501 21 11.0001 20.55 11.0001 20V17H13.0001V20C13.0001 20.55 13.4501 21 14.0001 21H16C16 21 17 21 17 20V13C17 11.9 17.0001 11 17.0001 11ZM11.0001 15H9.00012V13H11.0001V15ZM11.0001 11H9.00012V9H11.0001V11ZM11.0001 7H9.00012V5H11.0001V7ZM15.0001 15H13.0001V13H15.0001V15ZM15.0001 11H13.0001V9H15.0001V11ZM15.0001 7H13.0001V5H15.0001V7Z" fill="white"/>
</svg>
