<svg width="48" height="48" viewBox="0 0 48 48" fill="none" xmlns="http://www.w3.org/2000/svg">
<g filter="url(#filter0_d_339_2516)">
<rect x="4" y="2" width="40" height="40" rx="4" fill="#EB7223" shape-rendering="crispEdges"/>
<path d="M24 22C26.21 22 28 20.21 28 18C28 15.79 26.21 14 24 14C21.79 14 20 15.79 20 18C20 20.21 21.79 22 24 22ZM24 24C21.33 24 16 25.34 16 28V29C16 29.55 16.45 30 17 30H31C31.55 30 32 29.55 32 29V28C32 25.34 26.67 24 24 24Z" fill="white"/>
</g>
<defs>
<filter id="filter0_d_339_2516" x="0" y="0" width="48" height="48" filterUnits="userSpaceOnUse" color-interpolation-filters="sRGB">
<feFlood flood-opacity="0" result="BackgroundImageFix"/>
<feColorMatrix in="SourceAlpha" type="matrix" values="0 0 0 0 0 0 0 0 0 0 0 0 0 0 0 0 0 0 127 0" result="hardAlpha"/>
<feOffset dy="2"/>
<feGaussianBlur stdDeviation="2"/>
<feComposite in2="hardAlpha" operator="out"/>
<feColorMatrix type="matrix" values="0 0 0 0 0 0 0 0 0 0 0 0 0 0 0 0 0 0 0.2 0"/>
<feBlend mode="normal" in2="BackgroundImageFix" result="effect1_dropShadow_339_2516"/>
<feBlend mode="normal" in="SourceGraphic" in2="effect1_dropShadow_339_2516" result="shape"/>
</filter>
</defs>
</svg>
