<svg width="24" height="24" viewBox="0 0 24 24" fill="none" xmlns="http://www.w3.org/2000/svg">
<mask id="mask0_302_2763" style="mask-type:alpha" maskUnits="userSpaceOnUse" x="0" y="0" width="24" height="24">
<rect width="24" height="24" fill="#D9D9D9"/>
</mask>
<g mask="url(#mask0_302_2763)">
<path d="M4.95001 7.325L4.22501 6.6C4.00835 6.4 3.89601 6.16667 3.88801 5.9C3.87935 5.63333 3.98335 5.4 4.20001 5.2C4.40001 5 4.63735 4.89567 4.91201 4.887C5.18735 4.879 5.42501 4.975 5.62501 5.175L6.35001 5.9C6.53335 6.08333 6.62935 6.31267 6.63801 6.588C6.64601 6.86267 6.55001 7.1 6.35001 7.3C6.16668 7.48333 5.93735 7.579 5.66201 7.587C5.38735 7.59567 5.15001 7.50833 4.95001 7.325ZM12 5C11.7167 5 11.4793 4.904 11.288 4.712C11.096 4.52067 11 4.28333 11 4V3C11 2.71667 11.096 2.479 11.288 2.287C11.4793 2.09567 11.7167 2 12 2C12.2833 2 12.521 2.09567 12.713 2.287C12.9043 2.479 13 2.71667 13 3V4C13 4.28333 12.9043 4.52067 12.713 4.712C12.521 4.904 12.2833 5 12 5ZM17.7 7.325C17.5 7.125 17.4 6.88333 17.4 6.6C17.4 6.31667 17.5 6.075 17.7 5.875L18.4 5.175C18.5833 4.99167 18.8123 4.9 19.087 4.9C19.3623 4.9 19.6 5 19.8 5.2C19.9833 5.38333 20.075 5.61667 20.075 5.9C20.075 6.18333 19.9833 6.41667 19.8 6.6L19.1 7.3C18.9 7.5 18.6667 7.604 18.4 7.612C18.1333 7.62067 17.9 7.525 17.7 7.325ZM11 22C10.45 22 9.97935 21.8043 9.58801 21.413C9.19601 21.021 9.00001 20.55 9.00001 20V17L6.57501 14.575C6.39168 14.3917 6.25001 14.1793 6.15001 13.938C6.05001 13.696 6.00001 13.4417 6.00001 13.175V10C6.00001 9.71667 6.09568 9.479 6.28701 9.287C6.47901 9.09567 6.71668 9 7.00001 9H17C17.2833 9 17.5207 9.09567 17.712 9.287C17.904 9.479 18 9.71667 18 10V13.175C18 13.4417 17.95 13.696 17.85 13.938C17.75 14.1793 17.6083 14.3917 17.425 14.575L15 17V20C15 20.55 14.8043 21.021 14.413 21.413C14.021 21.8043 13.55 22 13 22H11ZM11 20H13V16.175L16 13.175V11H8.00001V13.175L11 16.175V20Z" fill="#5E5E5E"/>
</g>
</svg>
