<svg width="24" height="24" viewBox="0 0 24 24" fill="none" xmlns="http://www.w3.org/2000/svg">
<mask id="mask0_302_2766" style="mask-type:alpha" maskUnits="userSpaceOnUse" x="0" y="0" width="24" height="24">
<rect width="24" height="24" fill="#D9D9D9"/>
</mask>
<g mask="url(#mask0_302_2766)">
<path d="M5.5 23C5.08333 23 4.72933 22.854 4.438 22.562C4.146 22.2707 4 21.9167 4 21.5V18.5C4 18.0833 4.146 17.7293 4.438 17.438C4.72933 17.146 5.08333 17 5.5 17H6.5V15H5.5C5.08333 15 4.72933 14.854 4.438 14.562C4.146 14.2707 4 13.9167 4 13.5V10.5C4 10.0833 4.146 9.72933 4.438 9.438C4.72933 9.146 5.08333 9 5.5 9H6.5V7H5.5C5.08333 7 4.72933 6.854 4.438 6.562C4.146 6.27067 4 5.91667 4 5.5V2.5C4 2.08333 4.146 1.72933 4.438 1.438C4.72933 1.146 5.08333 1 5.5 1H9.5C9.91667 1 10.2707 1.146 10.562 1.438C10.854 1.72933 11 2.08333 11 2.5V5.5C11 5.91667 10.854 6.27067 10.562 6.562C10.2707 6.854 9.91667 7 9.5 7H8.5V9H9.5C9.91667 9 10.2707 9.146 10.562 9.438C10.854 9.72933 11 10.0833 11 10.5V11H14V10.5C14 10.0833 14.146 9.72933 14.438 9.438C14.7293 9.146 15.0833 9 15.5 9H19.5C19.9167 9 20.2707 9.146 20.562 9.438C20.854 9.72933 21 10.0833 21 10.5V13.5C21 13.9167 20.854 14.2707 20.562 14.562C20.2707 14.854 19.9167 15 19.5 15H15.5C15.0833 15 14.7293 14.854 14.438 14.562C14.146 14.2707 14 13.9167 14 13.5V13H11V13.5C11 13.9167 10.854 14.2707 10.562 14.562C10.2707 14.854 9.91667 15 9.5 15H8.5V17H9.5C9.91667 17 10.2707 17.146 10.562 17.438C10.854 17.7293 11 18.0833 11 18.5V21.5C11 21.9167 10.854 22.2707 10.562 22.562C10.2707 22.854 9.91667 23 9.5 23H5.5ZM6 21H9V19H6V21ZM6 13H9V11H6V13ZM16 13H19V11H16V13ZM6 5H9V3H6V5Z" fill="#1C1B1F"/>
</g>
</svg>
