<svg width="25" height="24" viewBox="0 0 25 24" fill="none" xmlns="http://www.w3.org/2000/svg">
<mask id="mask0_1238_1822" style="mask-type:alpha" maskUnits="userSpaceOnUse" x="0" y="0" width="25" height="24">
<rect x="0.962891" width="24" height="24" fill="#5E5E5E"/>
</mask>
<g mask="url(#mask0_1238_1822)">
<path d="M19.8629 20.3L14.2629 14.7C13.7629 15.1 13.1879 15.4167 12.5379 15.65C11.8879 15.8833 11.1962 16 10.4629 16C8.64622 16 7.10889 15.371 5.85089 14.113C4.59222 12.8543 3.96289 11.3167 3.96289 9.5C3.96289 7.68333 4.59222 6.14567 5.85089 4.887C7.10889 3.629 8.64622 3 10.4629 3C12.2796 3 13.8172 3.629 15.0759 4.887C16.3339 6.14567 16.9629 7.68333 16.9629 9.5C16.9629 10.2333 16.8462 10.925 16.6129 11.575C16.3796 12.225 16.0629 12.8 15.6629 13.3L21.2879 18.925C21.4712 19.1083 21.5629 19.3333 21.5629 19.6C21.5629 19.8667 21.4629 20.1 21.2629 20.3C21.0796 20.4833 20.8462 20.575 20.5629 20.575C20.2796 20.575 20.0462 20.4833 19.8629 20.3ZM10.4629 14C11.7129 14 12.7756 13.5627 13.6509 12.688C14.5256 11.8127 14.9629 10.75 14.9629 9.5C14.9629 8.25 14.5256 7.18733 13.6509 6.312C12.7756 5.43733 11.7129 5 10.4629 5C9.21289 5 8.15022 5.43733 7.27489 6.312C6.40022 7.18733 5.96289 8.25 5.96289 9.5C5.96289 10.75 6.40022 11.8127 7.27489 12.688C8.15022 13.5627 9.21289 14 10.4629 14Z" fill="#5E5E5E"/>
</g>
</svg>
