<svg width="30" height="16" viewBox="0 0 30 16" fill="none" xmlns="http://www.w3.org/2000/svg">
<path d="M21.6666 0H8.33331C3.91998 0 0.333313 3.58667 0.333313 8C0.333313 12.4133 3.91998 16 8.33331 16H21.6666C26.08 16 29.6666 12.4133 29.6666 8C29.6666 3.58667 26.08 0 21.6666 0ZM21.6666 13.3333H8.33331C5.38665 13.3333 2.99998 10.9467 2.99998 8C2.99998 5.05333 5.38665 2.66667 8.33331 2.66667H21.6666C24.6133 2.66667 27 5.05333 27 8C27 10.9467 24.6133 13.3333 21.6666 13.3333ZM8.33331 4C6.11998 4 4.33331 5.78667 4.33331 8C4.33331 10.2133 6.11998 12 8.33331 12C10.5466 12 12.3333 10.2133 12.3333 8C12.3333 5.78667 10.5466 4 8.33331 4Z" fill="#5E5E5E"/>
</svg>
