<svg width="24" height="24" viewBox="0 0 24 24" fill="none" xmlns="http://www.w3.org/2000/svg">
<mask id="mask0_302_2756" style="mask-type:alpha" maskUnits="userSpaceOnUse" x="0" y="0" width="24" height="24">
<rect width="24" height="24" fill="#D9D9D9"/>
</mask>
<g mask="url(#mask0_302_2756)">
<path d="M7 12H17C17.2833 12 17.5207 11.904 17.712 11.712C17.904 11.5207 18 11.2833 18 11C18 10.7167 17.904 10.479 17.712 10.287C17.5207 10.0957 17.2833 10 17 10H7C6.71667 10 6.479 10.0957 6.287 10.287C6.09567 10.479 6 10.7167 6 11C6 11.2833 6.09567 11.5207 6.287 11.712C6.479 11.904 6.71667 12 7 12ZM7 16H13C13.2833 16 13.521 15.904 13.713 15.712C13.9043 15.5207 14 15.2833 14 15C14 14.7167 13.9043 14.479 13.713 14.287C13.521 14.0957 13.2833 14 13 14H7C6.71667 14 6.479 14.0957 6.287 14.287C6.09567 14.479 6 14.7167 6 15C6 15.2833 6.09567 15.5207 6.287 15.712C6.479 15.904 6.71667 16 7 16ZM4 20C3.45 20 2.97933 19.8043 2.588 19.413C2.196 19.021 2 18.55 2 18V6C2 5.45 2.196 4.97933 2.588 4.588C2.97933 4.196 3.45 4 4 4H9.175C9.44167 4 9.696 4.05 9.938 4.15C10.1793 4.25 10.3917 4.39167 10.575 4.575L12 6H20C20.55 6 21.021 6.196 21.413 6.588C21.8043 6.97933 22 7.45 22 8V18C22 18.55 21.8043 19.021 21.413 19.413C21.021 19.8043 20.55 20 20 20H4ZM4 6V18H20V8H11.175L9.175 6H4Z" fill="#5E5E5E"/>
</g>
</svg>
