<svg width="40" height="40" viewBox="0 0 40 40" fill="none" xmlns="http://www.w3.org/2000/svg">
<g filter="url(#filter0_d_339_2521)">
<g filter="url(#filter1_d_339_2521)">
<rect x="4.5" y="2.5" width="31" height="31" rx="3.5" stroke="#FF8E49"/>
<mask id="mask0_339_2521" style="mask-type:alpha" maskUnits="userSpaceOnUse" x="8" y="6" width="24" height="24">
<rect x="8" y="6" width="24" height="24" fill="#D9D9D9"/>
</mask>
<g mask="url(#mask0_339_2521)">
<path d="M20 25C19.7167 25 19.4793 24.904 19.288 24.712C19.096 24.5207 19 24.2833 19 24V19H14C13.7167 19 13.479 18.904 13.287 18.712C13.0957 18.5207 13 18.2833 13 18C13 17.7167 13.0957 17.479 13.287 17.287C13.479 17.0957 13.7167 17 14 17H19V12C19 11.7167 19.096 11.479 19.288 11.287C19.4793 11.0957 19.7167 11 20 11C20.2833 11 20.521 11.0957 20.713 11.287C20.9043 11.479 21 11.7167 21 12V17H26C26.2833 17 26.5207 17.0957 26.712 17.287C26.904 17.479 27 17.7167 27 18C27 18.2833 26.904 18.5207 26.712 18.712C26.5207 18.904 26.2833 19 26 19H21V24C21 24.2833 20.9043 24.5207 20.713 24.712C20.521 24.904 20.2833 25 20 25Z" fill="#FF8E49"/>
</g>
</g>
</g>
<defs>
<filter id="filter0_d_339_2521" x="0" y="0" width="40" height="40" filterUnits="userSpaceOnUse" color-interpolation-filters="sRGB">
<feFlood flood-opacity="0" result="BackgroundImageFix"/>
<feColorMatrix in="SourceAlpha" type="matrix" values="0 0 0 0 0 0 0 0 0 0 0 0 0 0 0 0 0 0 127 0" result="hardAlpha"/>
<feOffset dy="2"/>
<feGaussianBlur stdDeviation="2"/>
<feComposite in2="hardAlpha" operator="out"/>
<feColorMatrix type="matrix" values="0 0 0 0 0 0 0 0 0 0 0 0 0 0 0 0 0 0 0.2 0"/>
<feBlend mode="normal" in2="BackgroundImageFix" result="effect1_dropShadow_339_2521"/>
<feBlend mode="normal" in="SourceGraphic" in2="effect1_dropShadow_339_2521" result="shape"/>
</filter>
<filter id="filter1_d_339_2521" x="0" y="0" width="40" height="40" filterUnits="userSpaceOnUse" color-interpolation-filters="sRGB">
<feFlood flood-opacity="0" result="BackgroundImageFix"/>
<feColorMatrix in="SourceAlpha" type="matrix" values="0 0 0 0 0 0 0 0 0 0 0 0 0 0 0 0 0 0 127 0" result="hardAlpha"/>
<feOffset dy="2"/>
<feGaussianBlur stdDeviation="2"/>
<feComposite in2="hardAlpha" operator="out"/>
<feColorMatrix type="matrix" values="0 0 0 0 0 0 0 0 0 0 0 0 0 0 0 0 0 0 0.2 0"/>
<feBlend mode="normal" in2="BackgroundImageFix" result="effect1_dropShadow_339_2521"/>
<feBlend mode="normal" in="SourceGraphic" in2="effect1_dropShadow_339_2521" result="shape"/>
</filter>
</defs>
</svg>
